<?xml version="1.0" standalone="no"?>
<!DOCTYPE svg PUBLIC "-//W3C//DTD SVG 1.1//EN" "http://www.w3.org/Graphics/SVG/1.1/DTD/svg11.dtd" >
<svg>
<metadata>
Created by FontForge 20110222 at Mon Mar  7 04:45:44 2011
 By www-data
by Jens R. Ziehn
</metadata>
<defs>
<font id="MonsterAG" horiz-adv-x="1030" >
  <font-face 
    font-family="Monster AG"
    font-weight="400"
    font-stretch="normal"
    units-per-em="2048"
    panose-1="2 11 6 3 5 3 2 2 2 4"
    ascent="1638"
    descent="-410"
    x-height="1226"
    cap-height="1713"
    bbox="-208 -85 1527 1713"
    underline-thickness="0"
    underline-position="0"
    unicode-range="U+0020-00FC"
  />
    <missing-glyph />
    <glyph glyph-name="space" unicode=" " horiz-adv-x="512" 
 />
    <glyph glyph-name="A" unicode="A" horiz-adv-x="1203" 
d="M597 1063q-47 -36 -84 -93q-83 -133 -83 -327h38q0 52 37.5 89.5t91.5 37.5q53 0 91 -37.5t38 -89.5h38q0 195 -84 327q-35 54 -83 93zM35 222l358 1004h402l351 -1004h-388l-32 126h-273l-30 -126h-388z" />
    <glyph glyph-name="B" unicode="B" horiz-adv-x="1099" 
d="M608 918q-30 49 -72 84q-103 83 -256 83v-38q41 0 70.5 -38t29.5 -91q0 -54 -29.5 -91.5t-70.5 -37.5v-38q152 0 256 84q43 35 72 83zM701 539q-42 50 -93 83q-132 84 -328 84v-38q52 0 90 -38t38 -91q0 -54 -38 -91.5t-90 -37.5v-38q197 0 328 83q52 32 93 84zM83 222
v1004h542q175 0 272 -73q98 -73 98 -201q0 -83 -46 -136q-46 -55 -131 -71q116 -22 172 -80q57 -60 57 -159q0 -140 -108 -212q-107 -72 -315 -72h-541z" />
    <glyph glyph-name="C" unicode="C" horiz-adv-x="874" 
d="M828 244q-59 -24 -117 -36q-60 -12 -119 -12q-75 0 -140 16q-68 16 -123 47q-134 76 -201 194q-69 117 -69 269q0 111 39 209q39 95 113 169q76 74 173 112q100 38 213 38q30 0 60.5 -2t59.5 -11l116 -38l-1 -204h-4q-248 0 -415 -137q-71 -57 -118 -136q48 -81 118 -135
q167 -137 415 -137h2zM828 513q-67 0 -114 61.5t-47 148.5q0 86 47 147.5t114 61.5h4l-2 -419h-2z" />
    <glyph glyph-name="D" unicode="D" horiz-adv-x="1121" 
d="M108 222v229q236 2 400 136q69 54 118 135q-48 79 -118 136q-163 132 -400 137v231h292q140 0 238 -15q98 -17 160 -48q129 -69 200 -182q70 -115 70 -258q0 -142 -70 -256q-68 -111 -200 -182q-68 -34 -162 -48q-98 -15 -262 -15h-266zM108 514v417q61 -8 103.5 -67.5
t42.5 -140.5q0 -82 -42.5 -142t-103.5 -67z" />
    <glyph glyph-name="E" unicode="E" horiz-adv-x="819" 
d="M100 222v1004h671v-272h-317v-97h288v-257h-288v-106h326v-272h-680z" />
    <glyph glyph-name="F" unicode="F" horiz-adv-x="748" 
d="M43 222v1004h670v-272h-309v-117h280v-257h-280v-358h-361z" />
    <glyph glyph-name="G" unicode="G" horiz-adv-x="1166" 
d="M722 817h386q2 -40 2 -46q1 -10 1 -26q0 -89 -16 -158q-17 -71 -48 -126q-77 -129 -198 -197q-120 -68 -276 -68q-116 0 -211 38q-96 36 -174 112q-74 73 -113 169q-38 97 -38 207q0 112 39 208q39 97 113 168q74 74 172 112q99 39 212 39q153 0 274 -68
q121 -69 196 -198l-321 -119q-186 0 -312 -102q-52 -42 -88 -102q36 -61 88 -102q126 -102 312 -102q25 4 22 26t-22 21q-51 0 -86 45.5t-35 111.5q0 65 35 111t86 46z" />
    <glyph glyph-name="H" unicode="H" horiz-adv-x="1057" 
d="M65 222v1004h362v-334h219v334h361v-1004h-361v354h-219v-354h-362z" />
    <glyph glyph-name="I" unicode="I" horiz-adv-x="775" 
d="M85 222v1004h367v-1004h-367zM739 1525q-41 -54 -104 -94q-148 -94 -369 -94q-220 0 -369 94q-62 39 -105 94q43 54 105 94q149 94 369 94q221 0 369 -94q63 -41 104 -94zM266 1670q-60 0 -102 -42.5t-42 -102.5t42 -102.5t102 -42.5q59 0 101 42.5t42 102.5t-42 102.5
t-101 42.5z" />
    <glyph glyph-name="J" unicode="J" horiz-adv-x="753" 
d="M357 671v555h361v-653q0 -83 -11 -133q-13 -51 -37 -90q-47 -74 -123 -114q-78 -40 -173 -40q-94 0 -164 26q-74 26 -142 83l118 270q29 -33 56 -49t47 -16q39 0 54 30q14 29 14 131z" />
    <glyph glyph-name="K" unicode="K" horiz-adv-x="1216" 
d="M67 222v1004h412v-215l228 215h409l-389 -494l432 -510h-437l-243 207v-207h-412zM706 513v49q-68 0 -116 49t-48 118t48 117.5t116 48.5v50q-253 0 -424 -108q-71 -45 -120 -108q49 -63 120 -108q171 -108 424 -108z" />
    <glyph glyph-name="L" unicode="L" horiz-adv-x="830" 
d="M79 222v1004h362v-678h350v-326h-712z" />
    <glyph glyph-name="M" unicode="M" horiz-adv-x="1478" 
d="M1054 222l-59 269l-161 -269h-214l-160 269l-59 -269h-354l171 1004h372l137 -217h7l143 217h371l160 -1004h-354zM1155 741q-38 48 -92 84q-132 84 -328 84t-328 -84q-53 -33 -93 -84q41 -51 93 -83q130 -83 328 -83q197 0 328 83q54 34 92 83zM735 870q52 0 89.5 -38
t37.5 -90q0 -54 -37.5 -91.5t-89.5 -37.5q-53 0 -90 37.5t-37 91.5q0 52 37 90t90 38z" />
    <glyph glyph-name="N" unicode="N" horiz-adv-x="1150" 
d="M1002 741q-38 48 -92 84q-132 84 -328 84t-328 -84q-54 -35 -93 -84q39 -50 93 -83q130 -83 328 -83q197 0 328 83q54 34 92 83zM582 870q52 0 89.5 -38t37.5 -90q0 -54 -37.5 -91.5t-89.5 -37.5q-53 0 -90 37.5t-37 91.5q0 52 37 90t90 38zM94 222v1004h354l303 -235
l-3 235h348v-1004h-357l-300 231l3 -231h-348z" />
    <glyph glyph-name="O" unicode="O" horiz-adv-x="1192" 
d="M1010 746q-39 48 -93 84q-133 83 -328 83q-194 0 -328 -83q-54 -36 -93 -84q37 -48 93 -83q133 -84 328 -84q196 0 328 84q55 35 93 83zM589 875q52 0 89.5 -38t37.5 -91q0 -54 -37.5 -91.5t-89.5 -37.5q-53 0 -90 37.5t-37 91.5q0 53 37 91t90 38zM1136 727
q0 -107 -39 -206q-39 -94 -115 -170q-75 -73 -174 -112q-98 -39 -209 -39q-113 0 -210 39q-99 38 -175 114q-74 72 -113 167q-38 95 -38 207q0 110 38 206q38 94 113 169q74 72 174 112q97 39 211 39q113 0 211 -39q98 -40 174 -112q73 -74 113 -169q39 -96 39 -206z" />
    <glyph glyph-name="P" unicode="P" horiz-adv-x="971" 
d="M778 888q-38 48 -92 84q-132 84 -328 84v-38q52 0 89.5 -38t37.5 -91q0 -54 -37.5 -91.5t-89.5 -37.5v-38q195 0 328 83q54 34 92 83zM56 222v1004h431q227 0 332 -88q106 -87 106 -278q0 -178 -95 -260q-95 -81 -300 -81h-113v-297h-361z" />
    <glyph glyph-name="R" unicode="R" horiz-adv-x="1031" 
d="M754 888q-38 48 -92 84q-132 84 -328 84v-38q52 0 89.5 -38t37.5 -91q0 -54 -37.5 -91.5t-89.5 -37.5v-38q195 0 328 83q54 34 92 83zM49 222v1004h454q197 0 301 -87t104 -251q0 -108 -52 -176q-52 -69 -142 -81l268 -409h-404l-175 332v-332h-354z" />
    <glyph glyph-name="Q" unicode="Q" horiz-adv-x="1250" 
d="M1015 741q-39 49 -93 84q-132 84 -328 84q-195 0 -328 -84q-54 -35 -93 -84q39 -50 93 -83q131 -83 328 -83t328 83q53 33 93 83zM906 142l-72 101q-14 -6 -21 -8q-98 -39 -209 -39q-113 0 -210 39q-98 38 -175 113q-75 74 -113 168q-38 95 -38 206q0 109 38 207
q38 95 113 168q78 75 174 113q97 39 211 39q113 0 211 -39q96 -39 174 -113q73 -73 113 -169q39 -95 39 -206t-39 -205q-26 -61 -64 -112l153 -137zM594 870q52 0 89.5 -38t37.5 -90q0 -54 -37.5 -91.5t-89.5 -37.5q-53 0 -89.5 37.5t-36.5 91.5q0 52 36.5 90t89.5 38z" />
    <glyph glyph-name="S" unicode="S" horiz-adv-x="953" 
d="M80 308l115 281q74 -53 138 -79q58 -25 113 -25q37 0 59 14q21 13 21 38q0 41 -106 64q-43 9 -54 11q-113 28 -172 98q-59 67 -59 174q0 161 115 263t304 102q84 0 170 -23q83 -23 169 -69l-110 -262q-56 39 -105 58q-50 20 -101 20q-39 0 -58 -12q-21 -12 -21 -35
q0 -44 150 -75q28 -7 37 -9q101 -23 163 -94q60 -72 60 -175q0 -166 -121 -272q-120 -105 -312 -105q-101 0 -198 28q-95 25 -197 84z" />
    <glyph glyph-name="T" unicode="T" horiz-adv-x="877" 
d="M275 222v617h-201v387h762v-387h-201v-617h-360zM754 1034q-30 34 -65 55q-91 55 -226 55q-138 0 -228 -55q-37 -23 -65 -55q28 -33 65 -55q90 -55 228 -55q135 0 226 55q35 20 65 55zM463 1119q88 0 88 -85t-88 -85q-89 0 -89 85t89 85z" />
    <glyph glyph-name="U" unicode="U" 
d="M620 1226h361v-544q0 -105 -14 -176q-15 -70 -45 -116q-63 -96 -165 -144q-102 -50 -237 -50q-138 0 -239 50q-103 48 -165 144q-30 43 -43 114q-14 71 -14 178v544h159h202v0q-71 -125 -71 -307q0 -196 84 -328q34 -55 83 -93q47 36 83 93q84 132 84 328q0 180 -71 307
h8zM387 919q0 52 37.5 89.5t91.5 37.5q53 0 91 -37.5t38 -89.5q0 -53 -38 -90t-91 -37q-54 0 -91.5 37t-37.5 90z" />
    <glyph glyph-name="V" unicode="V" horiz-adv-x="1181" 
d="M407 222l-383 1004h391q43 -150 88 -298.5t67 -302.5h7q27 153 73 302t91 299h384l-382 -1004h-336z" />
    <glyph glyph-name="W" unicode="W" horiz-adv-x="1552" 
d="M1187 722q-39 48 -93 83q-132 84 -328 84q-195 0 -327 -84q-54 -34 -94 -83q39 -51 94 -84q130 -83 327 -83t328 83q55 34 93 84zM766 850q53 0 90.5 -37.5t37.5 -90.5q0 -54 -37.5 -91.5t-90.5 -37.5q-52 0 -89 37.5t-37 91.5q0 53 37 90.5t89 37.5zM754 437l-104 -215
h-315l-293 1004h362l102 -312h8l119 312h255l118 -312h9l101 312h363l-294 -1004h-315l-104 215h-12z" />
    <glyph glyph-name="X" unicode="X" horiz-adv-x="1325" 
d="M890 1112q-60 -3 -121 -29q-143 -60 -255 -222q-111 -161 -117 -317q-3 -63 16 -125q62 4 121 30q144 61 255 223q110 160 117 317q3 65 -16 123zM546 839q29 43 81 52.5t96 -20.5q44 -31 54 -83t-19 -95q-30 -43 -82.5 -52t-95.5 21q-45 30 -54.5 82t20.5 95zM653 425
l-147 -203h-462l295 547l-249 457h457l106 -113l107 113h455l-247 -457l294 -547h-462z" />
    <glyph glyph-name="Y" unicode="Y" horiz-adv-x="1245" 
d="M353 222v444l-336 560h470l112 -271l2 -7q26 70 55 139t59 139h471l-348 -560v-444h-485z" />
    <glyph glyph-name="Z" unicode="Z" horiz-adv-x="1246" 
d="M866 1054q-63 0 -123 -22q-145 -52 -267 -207q-120 -155 -135 -311q-6 -64 9 -125q64 1 123 23q145 52 267 208q120 154 135 309q6 64 -9 125zM507 801q31 41 84 47.5t95 -26.5t49 -85.5t-25 -93.5q-33 -42 -85.5 -48t-94.5 27q-42 32 -49 84.5t26 94.5zM16 222l449 705
h-351v299h1073l-437 -694h388v-310h-1122z" />
    <glyph glyph-name="one" unicode="1" horiz-adv-x="607" 
d="M219 912h-150v304h510v-994h-360v690z" />
    <glyph glyph-name="two" unicode="2" horiz-adv-x="937" 
d="M36 222l448 534q33 39 45 63q12 25 12 49q0 30 -16 46q-17 17 -45 17q-36 0 -50 -28q-16 -28 -16 -89h-335v12q0 193 109 302q108 108 300 108q184 0 294 -101q111 -101 111 -264q0 -86 -39 -156q-40 -71 -131 -146l-84 -70h253v-277h-856z" />
    <glyph glyph-name="three" unicode="3" horiz-adv-x="988" 
d="M467 844h15q45 0 70 17q23 17 23 52q0 28 -15 43q-16 16 -41 16q-26 0 -39 -18q-14 -19 -14 -53h-331q2 164 102 250q99 85 291 85q169 0 273 -78q103 -78 103 -203q0 -78 -36 -127q-37 -50 -107 -75q87 -20 134 -80q46 -60 46 -154q0 -148 -112 -236q-113 -87 -303 -87
q-206 0 -320 101q-115 100 -115 278v2h345q1 -51 21 -76q19 -26 55 -26q35 0 57 23q21 21 21 58q0 41 -25 64q-25 22 -72 22h-9.5h-6.5q-4 -1 -10 -1v203z" />
    <glyph glyph-name="four" unicode="4" 
d="M412 684h143v136q0 30 2 66q1 18 5 46q-13 -30 -25 -54q-8 -15 -43 -71zM529 222v200h-429v262l376 542h397v-542h108v-262h-108v-200h-344z" />
    <glyph glyph-name="five" unicode="5" horiz-adv-x="960" 
d="M118 619l95 597h622v-268h-395l-11 -60q23 2 67 6q46 2 67 2q165 0 258 -88q94 -87 94 -240q0 -178 -122 -276q-123 -98 -341 -98q-104 0 -203 23q-96 22 -185 68l45 280q119 -49 190 -67q78 -20 139 -20q73 0 106 18q33 19 33 59q0 46 -50 72q-49 25 -141 25
q-45 0 -110 -8q-44 -6 -158 -25z" />
    <glyph glyph-name="six" unicode="6" horiz-adv-x="1001" 
d="M602 930q3 0 6 0.5t7 0.5h9h13q150 0 234 -82q83 -83 83 -230q0 -187 -121 -305t-312 -118t-312 114q-122 114 -122 292q0 104 49 205q50 104 194 276l118 140h470zM519 502q37 0 61 27q23 27 23 70t-23 70t-61 27q-37 0 -61 -27q-23 -27 -23 -70q0 -44 23 -70
q24 -27 61 -27z" />
    <glyph glyph-name="seven" unicode="7" horiz-adv-x="1037" 
d="M80 222l357 686h-349v308h900l-502 -994h-406z" />
    <glyph glyph-name="eight" unicode="8" horiz-adv-x="967" 
d="M267 745q-81 23 -122 77q-43 51 -43 129q0 123 110 205q110 80 283 80q172 0 283 -80q109 -81 109 -205q0 -77 -42 -129q-42 -53 -121 -77q94 -30 146 -92q51 -62 51 -145q0 -141 -116 -226q-115 -85 -310 -85q-194 0 -310 85q-116 84 -116 226q0 83 51 145t147 92z
M494 839q26 0 41 19q16 18 16 50t-15 52q-17 19 -42 19q-27 0 -41 -19q-15 -20 -15 -52q0 -31 15 -50q16 -19 41 -19zM495 445q34 0 55 25q22 26 22 69q0 41 -21 67q-22 25 -56 25t-55 -25q-22 -27 -22 -67q0 -42 22 -68q20 -26 55 -26z" />
    <glyph glyph-name="nine" unicode="9" horiz-adv-x="997" 
d="M435 507q-9 0 -14 -1h-9.5h-12.5q-148 0 -233 84q-86 86 -86 230q0 62 17 123q19 60 52 109q58 87 154 137q92 47 214 47q189 0 312 -113q121 -113 121 -289q0 -104 -49 -204q-50 -103 -193 -274l-118 -140h-471zM518 932q-38 0 -60 -26q-24 -27 -24 -70q0 -44 24 -69
q22 -26 60 -26q39 0 61 26q23 26 23 69q0 42 -23 70q-25 26 -61 26z" />
    <glyph glyph-name="zero" unicode="0" horiz-adv-x="1014" 
d="M103 717q0 242 115 380q115 139 317 139t316 -138q115 -138 115 -381q0 -246 -115 -383q-114 -138 -316 -138q-201 0 -317 140q-115 138 -115 381zM454 717q0 -106 19 -159q19 -50 62 -50q40 0 60 49q20 50 20 160q0 107 -20 158t-60 51q-43 0 -62 -50q-19 -49 -19 -159z
" />
    <glyph glyph-name="comma" unicode="," horiz-adv-x="542" 
d="M12 -17l163 496h342l-235 -496h-270z" />
    <glyph glyph-name="semicolon" unicode=";" horiz-adv-x="588" 
d="M35 -17l163 496h342l-236 -496h-269zM171 767q0 68 57 116q55 48 137 48q81 0 138 -48q57 -50 57 -116q0 -68 -56 -116q-57 -48 -139 -48q-83 0 -138 48q-56 48 -56 116z" />
    <glyph glyph-name="colon" unicode=":" horiz-adv-x="452" 
d="M41 365q0 69 57 117q55 48 137 48t139 -48t57 -117q0 -67 -57 -116q-57 -48 -139 -48q-81 0 -138 48q-56 48 -56 116zM41 767q0 66 56 115q57 48 138 48q82 0 139 -48t57 -115q0 -68 -57 -116t-139 -48q-81 0 -138 48q-56 48 -56 116z" />
    <glyph glyph-name="period" unicode="." horiz-adv-x="455" 
d="M44 365q0 68 56 117q57 48 139 48q81 0 138 -48t57 -117q0 -67 -57 -116q-56 -48 -138 -48t-139 48q-56 48 -56 116z" />
    <glyph glyph-name="Adieresis" unicode="&#xc4;" horiz-adv-x="1215" 
d="M610 1063q-50 -38 -84 -93q-84 -132 -84 -327h39q0 52 37.5 89.5t90.5 37.5t91 -37.5t38 -89.5h39q0 195 -84 327q-35 54 -83 93zM48 222l358 1004h401l351 -1004h-388l-32 126h-272l-31 -126h-387zM363 1461q0 40 31 70q29 31 71 31t72 -30q30 -29 30 -71q0 -45 -29 -74
t-73 -29q-42 0 -72 30q-30 28 -30 73zM629 1461q0 39 31 70t72 31q42 0 72 -30q29 -29 29 -71q0 -45 -29 -74t-72 -29q-42 0 -72 30q-31 29 -31 73z" />
    <glyph glyph-name="Odieresis" unicode="&#xd6;" horiz-adv-x="1194" 
d="M1011 746q-37 47 -92 84q-133 83 -328 83q-196 0 -328 -83q-53 -34 -93 -84q38 -50 93 -83q132 -84 328 -84t328 84q56 36 92 83zM591 875q52 0 89.5 -38t37.5 -91q0 -54 -37.5 -91.5t-89.5 -37.5q-53 0 -90 37.5t-37 91.5q0 53 37 91t90 38zM1138 727q0 -108 -40 -206
q-40 -96 -114 -170q-74 -72 -174 -112q-99 -39 -210 -39t-210 39q-98 39 -174 114q-76 72 -113 167q-39 94 -39 207q0 111 39 206q36 94 113 169q74 72 174 112q97 39 210 39t212 -39q98 -40 174 -112q73 -74 113 -169q39 -96 39 -206zM355 1461q0 39 31 70t71 31
q43 0 72 -30q30 -29 30 -71q0 -45 -29 -74t-73 -29q-42 0 -72 30t-30 73zM622 1461q0 40 31 70q29 31 72 31q42 0 71 -30q30 -29 30 -71q0 -45 -29 -74t-72 -29t-73 30t-30 73z" />
    <glyph glyph-name="Udieresis" unicode="&#xdc;" horiz-adv-x="1063" 
d="M652 1226h361v-544q0 -105 -14 -176q-14 -70 -45 -116q-60 -95 -165 -144q-102 -50 -237 -50q-137 0 -239 50q-105 49 -164 144q-31 43 -44 114q-14 71 -14 178v544h159h202h1q-72 -126 -72 -307q0 -196 84 -328q34 -56 84 -93q45 35 83 93q83 132 83 328q0 180 -71 307
h8zM419 919q0 52 37.5 89.5t91.5 37.5q53 0 91 -37.5t38 -89.5q0 -53 -38 -90t-91 -37q-54 0 -91.5 37t-37.5 90zM321 1461q0 39 31 70t71 31q43 0 73 -30q29 -29 29 -71q0 -45 -29 -74q-28 -29 -73 -29q-42 0 -72 30t-30 73zM588 1461q0 40 31 70q29 31 72 31q41 0 71 -30
q30 -29 30 -71q0 -45 -29 -74t-72 -29t-73 30t-30 73z" />
    <glyph glyph-name="question" unicode="?" horiz-adv-x="918" 
d="M352 575v259q21 -6 41 -9q19 -3 35 -3q51 0 80 26q29 25 29 71q0 33 -16 51q-18 19 -45 19q-30 0 -45 -21q-15 -17 -18 -62h-346q10 162 121 261q109 96 286 96q178 0 289 -102q112 -103 112 -265q0 -148 -110 -239q-109 -92 -286 -92q-18 0 -60 2q-13 1 -67 8zM267 356
q0 65 56 112q56 46 139 46t138 -46q57 -47 57 -112q0 -67 -57 -113q-55 -47 -138 -47q-84 0 -138 47q-57 46 -57 113z" />
    <glyph glyph-name="exclam" unicode="!" horiz-adv-x="507" 
d="M93 360q0 68 57 116t137 48q82 0 139 -48t57 -116t-57 -116q-54 -48 -139 -48q-84 0 -137 48q-57 48 -57 116zM117 602v661h341v-661h-341z" />
    <glyph glyph-name="quotedbl" unicode="&#x22;" horiz-adv-x="1063" 
d="M507 729l161 497h345l-238 -497h-268zM68 729l163 497h342l-236 -497h-269z" />
    <glyph glyph-name="quotesingle" unicode="'" horiz-adv-x="578" 
d="M45 729l163 497h343l-236 -497h-270z" />
    <glyph glyph-name="parenleft" unicode="(" horiz-adv-x="555" 
d="M249 -85q-108 173 -158 341q-51 166 -51 344q0 177 57 356q56 175 176 369l256 -141q-89 -149 -130 -291q-43 -149 -43 -298q0 -124 40 -262q38 -131 121 -290z" />
    <glyph glyph-name="parenright" unicode=")" horiz-adv-x="579" 
d="M343 -85l-269 128q80 148 123 290q39 135 39 262q0 154 -43 298q-43 147 -130 291l256 141q119 -194 176 -369q57 -179 57 -356q0 -183 -51 -344q-50 -168 -158 -341z" />
    <glyph glyph-name="asterisk" unicode="*" horiz-adv-x="665" 
d="M422 1054l132 107l80 -134l-161 -64l161 -62l-80 -135l-132 109l26 -174h-159l27 174l-135 -109l-77 135l163 62l-163 64l77 134l135 -107l-27 172h159z" />
    <glyph glyph-name="a" unicode="a" horiz-adv-x="1192" 
d="M25 222l358 1004h401l352 -1004h-388l-33 126h-272l-30 -126h-388zM504 587h149l-30 114q-23 83 -31 133q-9 43 -10 87h-7q-2 -41 -9 -87q-5 -24 -13 -57t-18 -76z" />
    <glyph glyph-name="b" unicode="b" horiz-adv-x="940" 
d="M43 222v1004h481q153 0 240 -73q86 -72 86 -201q0 -83 -40 -136q-42 -55 -116 -71q102 -22 152 -80q50 -59 50 -159q0 -141 -95 -212q-95 -72 -279 -72h-479zM382 987v-140h47q44 0 67 18t23 52q0 33 -23 52q-23 18 -67 18h-47zM382 631v-160h60q53 0 83 20q29 21 29 60
q0 40 -29 59q-29 21 -83 21h-60z" />
    <glyph glyph-name="c" unicode="c" horiz-adv-x="871" 
d="M822 827q-52 49 -101 71q-51 24 -108 24q-87 0 -142 -55q-54 -54 -54 -145q0 -89 52 -141q51 -53 137 -53q49 0 106 22q51 21 118 71l-12 -377q-59 -25 -118 -36q-59 -12 -118 -12q-76 0 -141 16q-67 16 -122 47q-133 75 -202 194q-68 117 -68 269q0 111 39 209
q40 97 113 169q74 74 173 112q100 38 213 38q62 0 120 -13q58 -12 115 -38v-372z" />
    <glyph glyph-name="d" unicode="d" horiz-adv-x="1079" 
d="M69 222v1004h292q139 0 237 -15q98 -17 160 -48q132 -70 200 -182q70 -112 70 -258q0 -144 -69 -256t-201 -182q-68 -34 -161 -48q-98 -15 -263 -15h-265zM427 529q122 0 178 48q56 45 56 146q0 98 -54 146q-53 48 -165 48h-15v-388z" />
    <glyph glyph-name="e" unicode="e" horiz-adv-x="777" 
d="M61 222v1004h671v-272h-317v-97h287v-257h-287v-106h325v-272h-679z" />
    <glyph glyph-name="f" unicode="f" horiz-adv-x="769" 
d="M62 222v1004h671v-272h-310v-117h280v-257h-280v-358h-361z" />
    <glyph glyph-name="g" unicode="g" horiz-adv-x="1186" 
d="M730 582h-157v235h555q0 -15 0.5 -26.5t1.5 -19.5v-14v-12q0 -89 -16 -158q-17 -71 -48 -126q-77 -129 -198 -197q-120 -68 -276 -68q-116 0 -211 38q-97 37 -173 112q-76 73 -113 169q-39 96 -39 207q0 112 39 208q39 97 113 168q74 74 172 112q99 39 212 39
q153 0 274 -68q121 -69 196 -198l-321 -119q-27 43 -61 62q-36 21 -82 21q-80 0 -127 -61q-48 -62 -48 -164q0 -107 48 -165q47 -58 135 -58q54 0 85 22q32 20 39 61z" />
    <glyph glyph-name="h" unicode="h" horiz-adv-x="1077" 
d="M85 222v1004h361v-334h219v334h361v-1004h-361v354h-219v-354h-361z" />
    <glyph glyph-name="i" unicode="i" horiz-adv-x="433" 
d="M46 222v1004h367v-1004h-367z" />
    <glyph glyph-name="j" unicode="j" horiz-adv-x="743" 
d="M347 671v555h361v-653q0 -85 -12 -133q-10 -46 -36 -90q-47 -74 -123 -114q-78 -40 -173 -40q-94 0 -164 26q-76 27 -142 83l118 270q29 -33 56 -49t47 -16q39 0 53 30q15 28 15 131z" />
    <glyph glyph-name="k" unicode="k" horiz-adv-x="1174" 
d="M85 222v1004h354v-428l229 428h408l-303 -494l346 -510h-437l-243 420v-420h-354z" />
    <glyph glyph-name="l" unicode="l" horiz-adv-x="850" 
d="M98 222v1004h362v-678h350v-326h-712z" />
    <glyph glyph-name="m" unicode="m" horiz-adv-x="1498" 
d="M1073 222l-44 398q-3 22 -4.5 45t-3.5 46q-4 33 -7 92q-6 -42 -18 -92q-11 -47 -27 -103l-116 -386h-214l-115 386q-21 69 -28 103q-13 58 -17 92q-3 -24 -4.5 -47t-3.5 -45q-3 -33 -8 -91l-43 -398h-354l171 1004h372l72 -248q5 -20 10 -35q46 -163 55 -258h7
q7 63 24 135q9 36 19.5 76.5t24.5 85.5l75 244h372l159 -1004h-354z" />
    <glyph glyph-name="n" unicode="n" horiz-adv-x="1140" 
d="M83 222v1004h354l312 -525q-6 34 -9 77q-2 58 -2 111v337h348v-1004h-357l-308 522q5 -45 8 -73q3 -39 3 -86v-363h-349z" />
    <glyph glyph-name="o" unicode="o" horiz-adv-x="1186" 
d="M1130 722q0 -111 -39 -205q-39 -95 -114 -170q-75 -73 -174 -112t-209 -39q-112 0 -211 39q-97 38 -174 113q-74 71 -113 168q-38 92 -38 206q0 113 38 207q39 97 113 168q75 74 174 113q97 39 211 39q112 0 211 -39q96 -39 174 -113q74 -75 113 -169q38 -96 38 -206z
M594 533q75 0 122 52q46 50 46 137t-46 139q-48 52 -122 52q-77 0 -123 -53q-47 -54 -47 -138q0 -86 47 -137q46 -52 123 -52z" />
    <glyph glyph-name="p" unicode="p" horiz-adv-x="991" 
d="M438 947v-168h56q49 0 79 22q27 22 27 61t-28 63q-30 22 -78 22h-56zM75 222v1004h431q228 0 333 -88q105 -87 105 -278q0 -178 -94 -260q-95 -81 -301 -81h-113v-297h-361z" />
    <glyph glyph-name="q" unicode="q" horiz-adv-x="1231" 
d="M1101 722q0 -111 -39 -205q-22 -54 -53 -97l164 -152l-285 -126l-83 107q-16 -8 -31 -14q-99 -39 -210 -39q-113 0 -210 39q-99 38 -174 113q-76 74 -113 168q-39 94 -39 206q0 111 39 207q37 95 113 168q75 74 173 113q97 39 211 39q113 0 211 -39q97 -39 175 -113
q75 -76 112 -169q39 -95 39 -206zM583 534l-77 100l223 43q4 18 4 45q0 85 -47 139q-48 52 -122 52q-75 0 -123 -53q-46 -52 -46 -138q0 -87 46 -137q47 -52 123 -52q13 0 19 1z" />
    <glyph glyph-name="r" unicode="r" horiz-adv-x="1052" 
d="M68 222v1004h454q197 0 302 -87q104 -88 104 -251q0 -107 -53 -176q-52 -69 -141 -81l268 -409h-405l-175 332v-332h-354zM422 968v-197h56q50 0 79 25q28 26 28 72q0 47 -28 74q-28 26 -79 26h-56z" />
    <glyph glyph-name="s" unicode="s" horiz-adv-x="1003" 
d="M128 308l116 281q74 -53 138 -79q58 -25 113 -25q36 0 58 14q22 13 22 38q0 41 -107 64q-39 8 -53 11q-113 28 -172 98q-60 69 -60 174q0 160 116 263q115 102 303 102q85 0 171 -23q85 -24 168 -69l-109 -262q-56 39 -105 58q-50 20 -102 20q-37 0 -58 -12
q-20 -12 -20 -35q0 -44 150 -75q28 -7 37 -9q101 -23 163 -94q59 -73 59 -175q0 -166 -120 -272q-120 -105 -313 -105q-100 0 -197 28q-94 25 -198 84z" />
    <glyph glyph-name="t" unicode="t" horiz-adv-x="867" 
d="M265 222v676h-201v328h762v-328h-201v-676h-360z" />
    <glyph glyph-name="u" unicode="u" horiz-adv-x="1080" 
d="M107 682v544h361v-547q0 -95 23 -131q22 -36 77 -36q54 0 77 37q24 37 24 130v547h360v-544q0 -112 -14 -176q-14 -70 -45 -116q-60 -95 -164 -144q-103 -50 -238 -50q-137 0 -238 50q-105 49 -165 144q-31 46 -44 114q-14 71 -14 178z" />
    <glyph glyph-name="v" unicode="v" horiz-adv-x="1231" 
d="M456 222l-384 1004h391l106 -364q21 -71 35 -134q11 -58 14 -103h7q6 43 20 108q11 53 33 121l112 372h383l-382 -1004h-335z" />
    <glyph glyph-name="w" unicode="w" horiz-adv-x="1603" 
d="M802 731q-2 -45 -22 -143q-5 -15 -6 -24l-75 -342h-315l-293 1004h362l79 -442q4 -30 8 -56.5t7 -50.5q5 -43 7 -90h8q1 60 22 157q0 3 0.5 7t1.5 7l96 468h254l95 -469q1 -5 3 -13q19 -100 21 -157h9q0 26 6 90q6 55 16 107l79 442h362l-293 -1004h-315l-76 342l-5 25
q-20 85 -23 142h-13z" />
    <glyph glyph-name="x" unicode="x" horiz-adv-x="1263" 
d="M675 450q-15 30 -22 50q-8 24 -10 34q-4 -16 -10 -32q-6 -17 -24 -52l-113 -228h-413l356 535l-314 469h412l74 -164q0 -1 4 -9q22 -53 28 -74q4 16 12 37q3 9 8 20.5t11 25.5l76 164h410l-314 -469l357 -535h-413z" />
    <glyph glyph-name="y" unicode="y" horiz-adv-x="1168" 
d="M402 222v444l-336 560h411l85 -195q11 -28 27 -76l2 -7q6 19 26 71q2 5 5 11l83 196h408l-348 -560v-444h-363z" />
    <glyph glyph-name="z" unicode="z" horiz-adv-x="1076" 
d="M2 222l449 705h-351v299h925l-436 -694h387v-310h-974z" />
    <glyph glyph-name="adieresis" unicode="&#xe4;" horiz-adv-x="1207" 
d="M359 1461q0 39 31 70t71 31q43 0 72 -30q30 -29 30 -71q0 -45 -29 -74t-73 -29q-42 0 -72 30t-30 73zM626 1461q0 40 31 70q29 31 72 31q41 0 71 -30t30 -71q0 -45 -29 -74t-72 -29t-73 30t-30 73zM39 222l358 1004h402l351 -1004h-389l-32 126h-272l-31 -126h-387z
M518 587h150l-31 114q-26 98 -31 133q-9 43 -10 87h-6q-4 -49 -11 -87q-8 -46 -30 -133z" />
    <glyph glyph-name="odieresis" unicode="&#xf6;" horiz-adv-x="1181" 
d="M352 1461q0 40 31 70q29 31 71 31t72 -30q29 -28 29 -71q0 -46 -28 -74q-29 -29 -73 -29t-72 30q-30 30 -30 73zM618 1461q0 39 31 70t72 31q42 0 72 -30q29 -29 29 -71q0 -45 -28 -74q-31 -29 -73 -29t-72 30q-31 29 -31 73zM1125 722q0 -109 -40 -205
q-39 -95 -114 -170q-76 -73 -174 -112q-99 -39 -210 -39q-112 0 -209 39q-98 38 -175 113q-76 74 -113 168q-38 92 -38 206q0 113 38 207q37 95 113 168q75 74 174 113q97 39 210 39t212 -39q96 -39 174 -113q74 -75 113 -169q39 -95 39 -206zM587 533q76 0 123 52
q46 50 46 137t-46 139q-48 52 -123 52q-76 0 -122 -53q-47 -54 -47 -138q0 -86 47 -137q46 -52 122 -52z" />
    <glyph glyph-name="udieresis" unicode="&#xfc;" horiz-adv-x="1059" 
d="M318 1461q0 40 31 70q29 31 71 31t72 -30q29 -28 29 -71q0 -46 -28 -74q-29 -29 -73 -29q-43 0 -73 30q-29 30 -29 73zM585 1461q0 40 30 70q31 31 72 31q42 0 72 -30q29 -29 29 -71q0 -47 -29 -74q-28 -29 -72 -29q-42 0 -72 30t-30 73zM87 682v544h361v-547
q0 -95 23 -131q22 -36 77 -36q54 0 77 37q24 37 24 130v547h360v-544q0 -112 -14 -176q-14 -68 -44 -116q-62 -95 -165 -144q-103 -50 -238 -50q-137 0 -238 50q-103 48 -165 144q-31 46 -44 114q-14 71 -14 178z" />
    <glyph glyph-name="hyphen" unicode="-" horiz-adv-x="975" 
d="M1011 746q-37 47 -92 84q-133 83 -328 83q-196 0 -328 -83q-53 -34 -93 -84q38 -50 93 -83q132 -84 328 -84t328 84q56 36 92 83zM591 875q52 0 89.5 -38t37.5 -91q0 -54 -37.5 -91.5t-89.5 -37.5q-53 0 -90 37.5t-37 91.5q0 53 37 91t90 38z" />
  </font>
</defs>
</svg>
